<svg style="object-fit:cover" id="my-svg" version="1" baseProfile="full" width="100%" height="100%" viewBox="0 0 1239 648" xmlns="http://www.w3.org/2000/svg"><rect width="1239" height="648" fill="#f3f3f3"/><defs><linearGradient id="linear-gradient" x1="0" x2="1" y1="0" y2="1"><stop offset="0%" stop-color="#72c3b790"/><stop offset="100%" stop-color="#aa9cc190"/></linearGradient></defs><path transform="scale(1, -1)" style="transform-origin:center" d="M 0,648 V 0,453 C 71.44642857142858,400.7142857142857 142.89285714285717,348.42857142857144 266,365 C 389.10714285714283,381.57142857142856 563.8750000000001,467 676,499 C 788.1249999999999,531 837.6071428571429,509.57142857142856 921,493 C 1004.3928571428571,476.42857142857144 1121.6964285714284,464.7142857142857 1239,453 C 1239,453 1239,648 1239,648 Z" stroke="none" stroke-width="0" fill="url(#linear-gradient)" class="transition-all duration-300 ease-in-out delay-150"/><defs><linearGradient id="linear-gradient" x1="0" x2="1" y1="0" y2="1"><stop offset="0%" stop-color="#72c3b7ff"/><stop offset="100%" stop-color="#aa9cc1ff"/></linearGradient></defs><path transform="scale(1, -1)" style="transform-origin:center" d="M 0,648 V 0,680 C 107.125,720 214.25,760 328,728 C 441.75,696 562.125,592 657,600 C 751.875,608 821.2500000000001,728 914,760 C 1006.7499999999999,792 1122.875,736 1239,680 C 1239,680 1239,648 1239,648 Z" stroke="none" stroke-width="0" fill="url(#linear-gradient)" class="transition-all duration-300 ease-in-out delay-150"/></svg>