<svg style="object-fit:cover" id="my-svg" version="1" baseProfile="full" width="100%" height="100%" viewBox="0 0 1239 648" xmlns="http://www.w3.org/2000/svg"><rect width="1239" height="648" fill="#f3f3f3"/><defs><linearGradient id="linear-gradient" x1="0" x2="1" y1="0" y2="1"><stop offset="0%" stop-color="#13e7a090"/><stop offset="100%" stop-color="#9c84b490"/></linearGradient></defs><path transform="scale(1, 1)" style="transform-origin:center" d="M 0,648 V 0,388 C 77.44642857142858,370.2142857142857 154.89285714285717,352.42857142857144 264,325 C 373.10714285714283,297.57142857142856 513.8749999999999,260.5 620,283 C 726.1250000000001,305.5 797.6071428571429,387.57142857142856 895,415 C 992.3928571428571,442.42857142857144 1115.6964285714284,415.2142857142857 1239,388 C 1239,388 1239,648 1239,648 Z" stroke="none" stroke-width="0" fill="url(#linear-gradient)" class="transition-all duration-300 ease-in-out delay-150"/><defs><linearGradient id="linear-gradient" x1="0" x2="1" y1="0" y2="1"><stop offset="0%" stop-color="#13e7a0ff"/><stop offset="100%" stop-color="#9c84b4ff"/></linearGradient></defs><path transform="scale(1, 1)" style="transform-origin:center" d="M 0,648 V 0,583 C 109.66071428571428,584.1785714285714 219.32142857142856,585.3571428571429 321,558 C 422.67857142857144,530.6428571428571 516.375,474.75 614,504 C 711.625,533.25 813.1785714285714,647.6428571428571 918,675 C 1022.8214285714286,702.3571428571429 1130.9107142857142,642.6785714285714 1239,583 C 1239,583 1239,648 1239,648 Z" stroke="none" stroke-width="0" fill="url(#linear-gradient)" class="transition-all duration-300 ease-in-out delay-150"/></svg>